<?xml version="1.0" standalone="no"?><!DOCTYPE svg PUBLIC "-//W3C//DTD SVG 1.1//EN" "http://www.w3.org/Graphics/SVG/1.1/DTD/svg11.dtd"><svg t="1598187276950" class="icon" viewBox="0 0 1024 1024" version="1.1" xmlns="http://www.w3.org/2000/svg" p-id="2950" xmlns:xlink="http://www.w3.org/1999/xlink" width="200" height="200"><defs><style type="text/css"></style></defs><path d="M 861.577 428.695 h -223.037 c 86.425 -319.186 -59.547 -335.487 -59.547 -335.487 c -61.867 0 -49.042 48.918 -53.716 57.076 c 0 156.096 -165.796 278.407 -165.796 278.407 v 442.661 c 0 43.695 59.547 59.433 82.908 59.433 h 335.111 c 31.537 0 57.221 -82.709 57.221 -82.709 c 82.903 -281.911 82.903 -365.789 82.903 -365.789 c 0.001 -58.247 -56.046 -53.591 -56.046 -53.591 v 0 v 0 Z M 861.577 428.695 Z"  p-id="2951"></path><path d="M 267.943 428.841 h -133.553 c -27.581 0 -28.006 27.09 -28.006 27.09 l 27.581 446.441 c 0 28.416 28.464 28.416 28.464 28.416 h 115.593 c 24.081 0 23.865 -18.798 23.865 -18.798 v -449.296 c 0 -34.287 -33.945 -33.854 -33.945 -33.854 v 0 v 0 Z M 267.943 428.841 Z"  p-id="2952"></path></svg>