<?xml version="1.0" standalone="no"?><!DOCTYPE svg PUBLIC "-//W3C//DTD SVG 1.1//EN" "http://www.w3.org/Graphics/SVG/1.1/DTD/svg11.dtd"><svg t="1605778044101" class="icon" viewBox="0 0 1024 1024" version="1.1" xmlns="http://www.w3.org/2000/svg" p-id="4401" xmlns:xlink="http://www.w3.org/1999/xlink" width="200" height="200"><defs><style type="text/css"></style></defs><path d="M281.6 460.8h460.8c25.6 0 38.4-19.2 38.4-38.4s-12.8-44.8-38.4-44.8H281.6c-25.6 0-44.8 19.2-44.8 44.8s19.2 38.4 44.8 38.4zM787.2 646.4c0-25.6-19.2-38.4-38.4-38.4H281.6c-25.6 0-38.4 19.2-38.4 38.4 0 25.6 19.2 38.4 38.4 38.4h460.8c25.6 6.4 44.8-12.8 44.8-38.4z" p-id="4402" ></path><path d="M940.8 646.4V147.2c0-57.6-44.8-102.4-102.4-102.4H704c-6.4-19.2-19.2-32-38.4-32H358.4c-19.2 0-32 12.8-38.4 25.6H185.6c-57.6 0-102.4 51.2-102.4 108.8v761.6c0 57.6 44.8 102.4 102.4 102.4h652.8c57.6 0 102.4-44.8 102.4-102.4v-262.4z m-64 262.4c0 19.2-19.2 38.4-38.4 38.4H185.6c-19.2 0-38.4-19.2-38.4-38.4V147.2c0-19.2 19.2-38.4 38.4-38.4H320c0 25.6 19.2 38.4 38.4 38.4h307.2c25.6 0 38.4-19.2 38.4-38.4h134.4c19.2 0 38.4 19.2 38.4 38.4v761.6z" p-id="4403" ></path></svg>