<?xml version="1.0" standalone="no"?><!DOCTYPE svg PUBLIC "-//W3C//DTD SVG 1.1//EN" "http://www.w3.org/Graphics/SVG/1.1/DTD/svg11.dtd"><svg t="1605779079161" class="icon" viewBox="0 0 1024 1024" version="1.1" xmlns="http://www.w3.org/2000/svg" p-id="6153" xmlns:xlink="http://www.w3.org/1999/xlink" width="200" height="200"><defs><style type="text/css"></style></defs><path d="M175.47784534 90.258176L175.47784534 933.08326402c0 46.36262401-37.933056 84.29568-84.29568 84.29567998s-84.29568-37.933056-84.29568001-84.29567999l0-842.69337602c0-46.36262401 37.933056-84.29568 84.29568001-84.29568 46.36262402-0.13171201 84.29568 37.801344 84.29568 84.16396801zM588.13154133 90.258176L588.13154133 928.078208c0 46.36262401-37.933056 84.29568-84.29567999 84.29568s-84.29568-37.933056-84.29568-84.29568l0-837.820032c0-46.36262401 37.933056-84.29568 84.29568-84.29568s84.29568 37.933056 84.29567999 84.29568zM1008.29282135 90.258176L1008.29282136 933.08326401c0 46.36262401-37.933056 84.29568-84.29568001 84.29567999s-84.29568-37.933056-84.29568003-84.29567999l0-842.69337601c0-46.36262401 37.933056-84.29568 84.29568003-84.29568001 46.36262402-0.13171201 84.29568 37.801344 84.29568 84.16396801z"  p-id="6154"></path></svg>