<?xml version="1.0" standalone="no"?><!DOCTYPE svg PUBLIC "-//W3C//DTD SVG 1.1//EN" "http://www.w3.org/Graphics/SVG/1.1/DTD/svg11.dtd"><svg t="1605779247481" class="icon" viewBox="0 0 1024 1024" version="1.1" xmlns="http://www.w3.org/2000/svg" p-id="6917" xmlns:xlink="http://www.w3.org/1999/xlink" width="200" height="200"><defs><style type="text/css"></style></defs><path d="M914.409712 196.639339a66.515495 66.515495 0 0 1 7.907436 30.69946 66.980638 66.980638 0 0 1-113.494971 48.607477 379.789523 379.789523 0 1 1-593.755451 0A66.980638 66.980638 0 0 1 109.479192 196.406768a511.657655 511.657655 0 1 0 804.93052 0z" p-id="6918" ></path><path d="M168.784966 294.552009a66.748067 66.748067 0 0 0 46.514332-18.605733l10.233153-12.093726A66.980638 66.980638 0 0 0 127.619782 174.545032q-9.535438 10.698296-18.373161 22.094307a66.515495 66.515495 0 0 0-7.907437 30.69946 67.21321 67.21321 0 0 0 67.445782 67.21321zM787.658156 227.338799a66.748067 66.748067 0 0 0 10.930868 36.513751l10.233153 12.093726a66.980638 66.980638 0 0 0 105.587535-79.539508q-8.837723-11.16344-18.373162-22.094308a66.980638 66.980638 0 0 0-108.378394 52.793767zM506.013875 565.032851a65.81778 65.81778 0 0 1-65.817781-65.81778V65.934066a65.934066 65.934066 0 0 1 131.868132 0v433.281005a66.050352 66.050352 0 0 1-66.050351 65.81778z" p-id="6919"></path></svg>